<svg xmlns="http://www.w3.org/2000/svg" xmlns:xlink="http://www.w3.org/1999/xlink" width="500" zoomAndPan="magnify" viewBox="0 0 375 374.999991" height="500" preserveAspectRatio="xMidYMid meet" version="1.0"><defs><g/><clipPath id="ab7ef4783a"><path d="M 0 10.324219 L 135.621094 10.324219 L 135.621094 126.570312 L 0 126.570312 Z M 0 10.324219 " clip-rule="nonzero"/></clipPath><clipPath id="4e9971c4d9"><path d="M 135.621094 68.597656 L 101.714844 126.875 L 33.90625 126.875 L 0 68.597656 L 33.90625 10.324219 L 101.714844 10.324219 Z M 135.621094 68.597656 " clip-rule="nonzero"/></clipPath><clipPath id="b263ace811"><path d="M 7.8125 17.035156 L 127.8125 17.035156 L 127.8125 120.160156 L 7.8125 120.160156 Z M 7.8125 17.035156 " clip-rule="nonzero"/></clipPath><clipPath id="394fd4d143"><path d="M 127.8125 68.597656 L 97.8125 120.160156 L 37.8125 120.160156 L 7.8125 68.597656 L 37.8125 17.035156 L 97.8125 17.035156 Z M 127.8125 68.597656 " clip-rule="nonzero"/></clipPath><clipPath id="aad3bfc4c9"><path d="M 15.683594 23.800781 L 120.28125 23.800781 L 120.28125 113.652344 L 15.683594 113.652344 Z M 15.683594 23.800781 " clip-rule="nonzero"/></clipPath><clipPath id="f9338ae88f"><path d="M 120.242188 68.726562 L 94.101562 113.652344 L 41.824219 113.652344 L 15.683594 68.726562 L 41.824219 23.800781 L 94.101562 23.800781 Z M 120.242188 68.726562 " clip-rule="nonzero"/></clipPath><clipPath id="8659f5824f"><path d="M 15.6875 23.800781 L 119.933594 23.800781 L 119.933594 113.648438 L 15.6875 113.648438 Z M 15.6875 23.800781 " clip-rule="nonzero"/></clipPath><clipPath id="e6ccceef4d"><path d="M 120.234375 68.722656 L 94.097656 113.648438 L 41.824219 113.648438 L 15.6875 68.722656 L 41.824219 23.800781 L 94.097656 23.800781 Z M 120.234375 68.722656 " clip-rule="nonzero"/></clipPath><clipPath id="900c032623"><path d="M 23.761719 30.4375 L 111.511719 30.4375 L 111.511719 106.761719 L 23.761719 106.761719 Z M 23.761719 30.4375 " clip-rule="nonzero"/></clipPath><clipPath id="426fd776d4"><path d="M 111.863281 68.601562 L 89.660156 106.761719 L 45.964844 106.761719 L 23.761719 68.601562 L 45.964844 30.4375 L 89.660156 30.4375 Z M 111.863281 68.601562 " clip-rule="nonzero"/></clipPath><clipPath id="7b63e0539b"><path d="M 64 0 L 183 0 L 183 137 L 64 137 Z M 64 0 " clip-rule="nonzero"/></clipPath><clipPath id="ab084bf048"><path d="M 64.484375 67.601562 L 182.238281 -0.101562 L 241.390625 102.785156 L 123.636719 170.484375 Z M 64.484375 67.601562 " clip-rule="nonzero"/></clipPath><clipPath id="2afde957d4"><path d="M 182.429688 136.683594 L 182.066406 -0.00390625 L 64.484375 67.601562 Z M 182.429688 136.683594 " clip-rule="nonzero"/></clipPath></defs><g clip-path="url(#ab7ef4783a)"><g clip-path="url(#4e9971c4d9)"><path stroke-linecap="butt" transform="matrix(0.75, 0, 0, 0.75, 0.0000045, 10.323765)" fill="none" stroke-linejoin="miter" d="M 180.828131 77.698527 L 135.619795 155.401657 L 45.20833 155.401657 L -0.000006 77.698527 L 45.20833 0.000605104 L 135.619795 0.000605104 Z M 180.828131 77.698527 " stroke="#000000" stroke-width="16" stroke-opacity="1" stroke-miterlimit="4"/></g></g><g clip-path="url(#b263ace811)"><g clip-path="url(#394fd4d143)"><path stroke-linecap="butt" transform="matrix(0.75, 0, 0, 0.75, 7.811379, 17.034009)" fill="none" stroke-linejoin="miter" d="M 160.001506 68.751534 L 120.001503 137.501538 L 40.001498 137.501538 L 0.00149527 68.751534 L 40.001498 0.00152908 L 120.001503 0.00152908 Z M 160.001506 68.751534 " stroke="#000000" stroke-width="16" stroke-opacity="1" stroke-miterlimit="4"/></g></g><g clip-path="url(#aad3bfc4c9)"><g clip-path="url(#f9338ae88f)"><path fill="#ffffff" d="M 15.683594 23.800781 L 120.28125 23.800781 L 120.28125 113.652344 L 15.683594 113.652344 Z M 15.683594 23.800781 " fill-opacity="1" fill-rule="nonzero"/></g></g><g clip-path="url(#8659f5824f)"><g clip-path="url(#e6ccceef4d)"><path stroke-linecap="butt" transform="matrix(0.75, 0, 0, 0.75, 15.6856, 23.798905)" fill="none" stroke-linejoin="miter" d="M 139.398385 59.898343 L 104.549422 119.799393 L 34.851497 119.799393 L 0.00253372 59.898343 L 34.851497 0.0025022 L 104.549422 0.0025022 Z M 139.398385 59.898343 " stroke="#000000" stroke-width="16" stroke-opacity="1" stroke-miterlimit="4"/></g></g><g clip-path="url(#900c032623)"><g clip-path="url(#426fd776d4)"><path stroke-linecap="butt" transform="matrix(0.75, 0, 0, 0.75, 23.762967, 30.439411)" fill="none" stroke-linejoin="miter" d="M 117.467093 50.882872 L 87.862924 101.763084 L 29.602504 101.763084 L -0.00166489 50.882872 L 29.602504 -0.00254784 L 87.862924 -0.00254784 Z M 117.467093 50.882872 " stroke="#ed8119" stroke-width="16" stroke-opacity="1" stroke-miterlimit="4"/></g></g><g clip-path="url(#7b63e0539b)"><g clip-path="url(#ab084bf048)"><g clip-path="url(#2afde957d4)"><path fill="#ffffff" d="M 64.484375 67.601562 L 182.238281 -0.101562 L 241.390625 102.785156 L 123.636719 170.484375 Z M 64.484375 67.601562 " fill-opacity="1" fill-rule="nonzero"/></g></g></g><g fill="#000000" fill-opacity="1"><g transform="translate(116.409092, 71.582726)"><g><path d="M 9.390625 -13.875 C 9.390625 -12.039062 9.835938 -10.410156 10.734375 -8.984375 C 11.628906 -7.566406 12.832031 -6.441406 14.34375 -5.609375 C 15.851562 -4.785156 17.507812 -4.375 19.3125 -4.375 C 21.519531 -4.375 23.414062 -4.8125 25 -5.6875 C 26.582031 -6.570312 27.898438 -7.488281 28.953125 -8.4375 L 31.96875 -4.53125 C 30.5625 -3.195312 28.734375 -2.019531 26.484375 -1 C 24.234375 0.0195312 21.71875 0.53125 18.9375 0.53125 C 16.125 0.53125 13.582031 -0.0976562 11.3125 -1.359375 C 9.039062 -2.628906 7.253906 -4.351562 5.953125 -6.53125 C 4.660156 -8.71875 4.015625 -11.164062 4.015625 -13.875 C 4.015625 -16.613281 4.660156 -19.0625 5.953125 -21.21875 C 7.253906 -23.382812 9.039062 -25.101562 11.3125 -26.375 C 13.582031 -27.644531 16.125 -28.28125 18.9375 -28.28125 C 21.78125 -28.28125 24.351562 -27.773438 26.65625 -26.765625 C 28.96875 -25.765625 30.738281 -24.4375 31.96875 -22.78125 L 28.953125 -18.78125 C 28.222656 -19.625 27.320312 -20.390625 26.25 -21.078125 C 25.175781 -21.765625 24.03125 -22.316406 22.8125 -22.734375 C 21.601562 -23.160156 20.414062 -23.375 19.25 -23.375 C 17.351562 -23.375 15.65625 -22.957031 14.15625 -22.125 C 12.664062 -21.300781 11.5 -20.175781 10.65625 -18.75 C 9.8125 -17.320312 9.390625 -15.695312 9.390625 -13.875 Z M 9.390625 -13.875 "/></g></g></g><g fill="#ed8119" fill-opacity="1"><g transform="translate(151.906581, 71.582726)"><g><path d="M 35.609375 -13.875 C 35.609375 -11.0625 34.921875 -8.570312 33.546875 -6.40625 C 32.171875 -4.25 30.296875 -2.550781 27.921875 -1.3125 C 25.554688 -0.0820312 22.859375 0.53125 19.828125 0.53125 C 16.804688 0.53125 14.097656 -0.0820312 11.703125 -1.3125 C 9.316406 -2.550781 7.4375 -4.25 6.0625 -6.40625 C 4.695312 -8.570312 4.015625 -11.0625 4.015625 -13.875 C 4.015625 -16.6875 4.695312 -19.171875 6.0625 -21.328125 C 7.4375 -23.492188 9.316406 -25.191406 11.703125 -26.421875 C 14.097656 -27.660156 16.804688 -28.28125 19.828125 -28.28125 C 22.859375 -28.28125 25.554688 -27.660156 27.921875 -26.421875 C 30.296875 -25.191406 32.171875 -23.492188 33.546875 -21.328125 C 34.921875 -19.171875 35.609375 -16.6875 35.609375 -13.875 Z M 30.0625 -13.875 C 30.101562 -15.738281 29.675781 -17.378906 28.78125 -18.796875 C 27.882812 -20.222656 26.648438 -21.332031 25.078125 -22.125 C 23.515625 -22.914062 21.765625 -23.3125 19.828125 -23.3125 C 17.898438 -23.3125 16.148438 -22.914062 14.578125 -22.125 C 13.015625 -21.332031 11.773438 -20.222656 10.859375 -18.796875 C 9.953125 -17.378906 9.515625 -15.738281 9.546875 -13.875 C 9.515625 -12.039062 9.953125 -10.410156 10.859375 -8.984375 C 11.773438 -7.566406 13.015625 -6.453125 14.578125 -5.640625 C 16.148438 -4.835938 17.898438 -4.4375 19.828125 -4.4375 C 21.765625 -4.4375 23.515625 -4.835938 25.078125 -5.640625 C 26.648438 -6.453125 27.882812 -7.566406 28.78125 -8.984375 C 29.675781 -10.410156 30.101562 -12.039062 30.0625 -13.875 Z M 30.0625 -13.875 "/></g></g></g><g fill="#000000" fill-opacity="1"><g transform="translate(191.518954, 71.582726)"><g><path d="M 34.390625 -39.03125 L 34.390625 0 L 28.953125 0 L 28.953125 -4.328125 C 28.328125 -3.515625 27.476562 -2.738281 26.40625 -2 C 25.332031 -1.257812 24.109375 -0.648438 22.734375 -0.171875 C 21.359375 0.296875 19.878906 0.53125 18.296875 0.53125 C 15.484375 0.53125 12.976562 -0.0820312 10.78125 -1.3125 C 8.582031 -2.550781 6.867188 -4.257812 5.640625 -6.4375 C 4.410156 -8.613281 3.796875 -11.09375 3.796875 -13.875 C 3.796875 -16.6875 4.425781 -19.171875 5.6875 -21.328125 C 6.957031 -23.492188 8.691406 -25.191406 10.890625 -26.421875 C 13.085938 -27.660156 15.578125 -28.28125 18.359375 -28.28125 C 20.679688 -28.28125 22.773438 -27.851562 24.640625 -27 C 26.503906 -26.15625 27.941406 -25.15625 28.953125 -24 L 28.953125 -39.03125 Z M 19.25 -4.265625 C 21.21875 -4.265625 22.945312 -4.6875 24.4375 -5.53125 C 25.9375 -6.382812 27.097656 -7.53125 27.921875 -8.96875 C 28.753906 -10.40625 29.171875 -12.039062 29.171875 -13.875 C 29.171875 -15.695312 28.753906 -17.328125 27.921875 -18.765625 C 27.097656 -20.210938 25.9375 -21.347656 24.4375 -22.171875 C 22.945312 -23.003906 21.21875 -23.421875 19.25 -23.421875 C 17.320312 -23.421875 15.609375 -23.003906 14.109375 -22.171875 C 12.617188 -21.347656 11.453125 -20.210938 10.609375 -18.765625 C 9.765625 -17.328125 9.34375 -15.695312 9.34375 -13.875 C 9.34375 -12.039062 9.765625 -10.40625 10.609375 -8.96875 C 11.453125 -7.53125 12.617188 -6.382812 14.109375 -5.53125 C 15.609375 -4.6875 17.320312 -4.265625 19.25 -4.265625 Z M 19.25 -4.265625 "/></g></g></g><g fill="#000000" fill-opacity="1"><g transform="translate(231.92007, 71.582726)"><g><path d="M 32.65625 -3.640625 L 32.59375 -3.640625 C 31.71875 -2.929688 30.617188 -2.253906 29.296875 -1.609375 C 27.984375 -0.960938 26.535156 -0.441406 24.953125 -0.046875 C 23.367188 0.335938 21.75 0.53125 20.09375 0.53125 C 16.894531 0.53125 14.0625 -0.0703125 11.59375 -1.28125 C 9.132812 -2.5 7.21875 -4.171875 5.84375 -6.296875 C 4.476562 -8.429688 3.796875 -10.851562 3.796875 -13.5625 C 3.796875 -16.65625 4.515625 -19.300781 5.953125 -21.5 C 7.398438 -23.695312 9.328125 -25.382812 11.734375 -26.5625 C 14.140625 -27.738281 16.769531 -28.328125 19.625 -28.328125 C 22.257812 -28.328125 24.648438 -27.753906 26.796875 -26.609375 C 28.941406 -25.460938 30.65625 -23.890625 31.9375 -21.890625 C 33.21875 -19.890625 33.859375 -17.550781 33.859375 -14.875 L 33.8125 -12.34375 L 9.28125 -12.34375 C 9.707031 -9.914062 10.957031 -8 13.03125 -6.59375 C 15.101562 -5.1875 17.707031 -4.484375 20.84375 -4.484375 C 23.125 -4.484375 24.992188 -4.84375 26.453125 -5.5625 C 27.910156 -6.28125 29.113281 -6.976562 30.0625 -7.65625 Z M 19.625 -23.3125 C 17.125 -23.3125 14.941406 -22.8125 13.078125 -21.8125 C 11.210938 -20.8125 10 -19.097656 9.4375 -16.671875 L 28.328125 -16.671875 L 28.328125 -17.25 C 28.179688 -18.445312 27.6875 -19.5 26.84375 -20.40625 C 26 -21.320312 24.9375 -22.035156 23.65625 -22.546875 C 22.375 -23.054688 21.03125 -23.3125 19.625 -23.3125 Z M 19.625 -23.3125 "/></g></g></g><g fill="#000000" fill-opacity="1"><g transform="translate(270.105982, 71.582726)"><g><path d="M 6.703125 0 L 6.703125 -39.03125 L 12.125 -39.03125 L 12.125 0 Z M 6.703125 0 "/></g></g></g><g fill="#000000" fill-opacity="1"><g transform="translate(289.04071, 71.582726)"><g><path d="M 34.28125 -27.6875 L 34.28125 0 L 28.859375 0 L 28.859375 -4.53125 C 28.222656 -3.6875 27.359375 -2.878906 26.265625 -2.109375 C 25.179688 -1.335938 23.925781 -0.703125 22.5 -0.203125 C 21.070312 0.285156 19.53125 0.53125 17.875 0.53125 C 15.132812 0.53125 12.703125 -0.0820312 10.578125 -1.3125 C 8.453125 -2.550781 6.78125 -4.257812 5.5625 -6.4375 C 4.351562 -8.613281 3.75 -11.109375 3.75 -13.921875 C 3.75 -16.734375 4.378906 -19.210938 5.640625 -21.359375 C 6.910156 -23.503906 8.660156 -25.191406 10.890625 -26.421875 C 13.128906 -27.660156 15.6875 -28.28125 18.5625 -28.28125 C 20.851562 -28.28125 22.882812 -27.835938 24.65625 -26.953125 C 26.4375 -26.078125 27.835938 -25.054688 28.859375 -23.890625 L 28.859375 -27.6875 Z M 19.140625 -4.484375 C 21.078125 -4.484375 22.789062 -4.894531 24.28125 -5.71875 C 25.78125 -6.550781 26.953125 -7.671875 27.796875 -9.078125 C 28.640625 -10.484375 29.0625 -12.097656 29.0625 -13.921875 C 29.0625 -15.679688 28.640625 -17.265625 27.796875 -18.671875 C 26.953125 -20.078125 25.78125 -21.191406 24.28125 -22.015625 C 22.789062 -22.847656 21.078125 -23.265625 19.140625 -23.265625 C 17.210938 -23.265625 15.5 -22.847656 14 -22.015625 C 12.507812 -21.191406 11.347656 -20.078125 10.515625 -18.671875 C 9.691406 -17.265625 9.28125 -15.679688 9.28125 -13.921875 C 9.28125 -12.097656 9.691406 -10.484375 10.515625 -9.078125 C 11.347656 -7.671875 12.507812 -6.550781 14 -5.71875 C 15.5 -4.894531 17.210938 -4.484375 19.140625 -4.484375 Z M 19.140625 -4.484375 "/></g></g></g><g fill="#000000" fill-opacity="1"><g transform="translate(329.811031, 71.582726)"><g><path d="M 22.578125 -28.28125 C 25.285156 -28.28125 27.726562 -27.671875 29.90625 -26.453125 C 32.09375 -25.242188 33.816406 -23.554688 35.078125 -21.390625 C 36.347656 -19.222656 36.984375 -16.734375 36.984375 -13.921875 C 36.984375 -11.109375 36.359375 -8.613281 35.109375 -6.4375 C 33.859375 -4.257812 32.140625 -2.550781 29.953125 -1.3125 C 27.773438 -0.0820312 25.300781 0.53125 22.53125 0.53125 C 20.382812 0.53125 18.410156 0.109375 16.609375 -0.734375 C 14.816406 -1.578125 13.394531 -2.53125 12.34375 -3.59375 L 12.34375 -0.15625 L 6.90625 -0.15625 L 6.90625 -39.03125 L 12.34375 -39.03125 L 12.34375 -23.84375 C 13.332031 -24.96875 14.726562 -25.988281 16.53125 -26.90625 C 18.34375 -27.820312 20.359375 -28.28125 22.578125 -28.28125 Z M 21.84375 -23.3125 C 19.90625 -23.3125 18.179688 -22.898438 16.671875 -22.078125 C 15.160156 -21.253906 13.984375 -20.132812 13.140625 -18.71875 C 12.296875 -17.3125 11.875 -15.710938 11.875 -13.921875 C 11.875 -12.128906 12.296875 -10.519531 13.140625 -9.09375 C 13.984375 -7.675781 15.160156 -6.550781 16.671875 -5.71875 C 18.179688 -4.894531 19.90625 -4.484375 21.84375 -4.484375 C 23.769531 -4.484375 25.476562 -4.894531 26.96875 -5.71875 C 28.46875 -6.550781 29.640625 -7.675781 30.484375 -9.09375 C 31.328125 -10.519531 31.75 -12.128906 31.75 -13.921875 C 31.75 -15.710938 31.328125 -17.3125 30.484375 -18.71875 C 29.640625 -20.132812 28.46875 -21.253906 26.96875 -22.078125 C 25.476562 -22.898438 23.769531 -23.3125 21.84375 -23.3125 Z M 21.84375 -23.3125 "/></g></g></g><g fill="#000000" fill-opacity="1"><g transform="translate(112.223568, 89.817736)"><g/></g></g><g fill="#000000" fill-opacity="1"><g transform="translate(116.858537, 89.817736)"><g/></g></g><g fill="#000000" fill-opacity="1"><g transform="translate(121.493506, 89.817736)"><g/></g></g><g fill="#000000" fill-opacity="1"><g transform="translate(126.128475, 89.817736)"><g/></g></g><g fill="#000000" fill-opacity="1"><g transform="translate(130.767032, 89.817736)"><g><path d="M 3.65625 0 L 3.65625 -7.640625 L 0.78125 -7.640625 L 0.78125 -8.96875 L 7.984375 -8.96875 L 7.984375 -7.640625 L 5.03125 -7.640625 L 5.03125 0 Z M 3.65625 0 "/></g></g></g><g fill="#000000" fill-opacity="1"><g transform="translate(139.526611, 89.817736)"><g/></g></g><g fill="#000000" fill-opacity="1"><g transform="translate(144.161581, 89.817736)"><g/></g></g><g fill="#000000" fill-opacity="1"><g transform="translate(148.798344, 89.817736)"><g><path d="M 1.6875 -8.96875 L 8.0625 -8.96875 L 8.0625 -7.640625 L 3.078125 -7.640625 L 3.078125 -5.265625 L 7.359375 -5.265625 L 7.359375 -3.9375 L 3.078125 -3.9375 L 3.078125 -1.328125 L 8.0625 -1.328125 L 8.0625 0 L 1.6875 0 Z M 1.6875 -8.96875 "/></g></g></g><g fill="#000000" fill-opacity="1"><g transform="translate(158.25551, 89.817736)"><g/></g></g><g fill="#000000" fill-opacity="1"><g transform="translate(162.89048, 89.817736)"><g/></g></g><g fill="#000000" fill-opacity="1"><g transform="translate(167.527243, 89.817736)"><g><path d="M 9.203125 -1.1875 C 8.992188 -0.988281 8.710938 -0.785156 8.359375 -0.578125 C 8.003906 -0.378906 7.59375 -0.210938 7.125 -0.078125 C 6.664062 0.0546875 6.175781 0.125 5.65625 0.125 C 5.007812 0.125 4.40625 0.015625 3.84375 -0.203125 C 3.28125 -0.421875 2.785156 -0.726562 2.359375 -1.125 C 1.941406 -1.53125 1.613281 -2.015625 1.375 -2.578125 C 1.144531 -3.148438 1.03125 -3.785156 1.03125 -4.484375 C 1.03125 -5.140625 1.148438 -5.742188 1.390625 -6.296875 C 1.640625 -6.859375 1.984375 -7.34375 2.421875 -7.75 C 2.867188 -8.15625 3.375 -8.472656 3.9375 -8.703125 C 4.5 -8.929688 5.097656 -9.046875 5.734375 -9.046875 C 6.253906 -9.046875 6.75 -8.96875 7.21875 -8.8125 C 7.6875 -8.664062 8.097656 -8.476562 8.453125 -8.25 C 8.816406 -8.019531 9.109375 -7.773438 9.328125 -7.515625 L 8.4375 -6.46875 C 8.0625 -6.820312 7.644531 -7.109375 7.1875 -7.328125 C 6.738281 -7.554688 6.234375 -7.671875 5.671875 -7.671875 C 5.128906 -7.671875 4.609375 -7.539062 4.109375 -7.28125 C 3.617188 -7.03125 3.21875 -6.664062 2.90625 -6.1875 C 2.59375 -5.707031 2.4375 -5.140625 2.4375 -4.484375 C 2.4375 -3.765625 2.59375 -3.164062 2.90625 -2.6875 C 3.226562 -2.207031 3.648438 -1.847656 4.171875 -1.609375 C 4.691406 -1.367188 5.25 -1.25 5.84375 -1.25 C 6.445312 -1.25 6.96875 -1.363281 7.40625 -1.59375 C 7.851562 -1.832031 8.222656 -2.078125 8.515625 -2.328125 Z M 9.203125 -1.1875 "/></g></g></g><g fill="#000000" fill-opacity="1"><g transform="translate(177.770299, 89.817736)"><g/></g></g><g fill="#000000" fill-opacity="1"><g transform="translate(182.405269, 89.817736)"><g/></g></g><g fill="#000000" fill-opacity="1"><g transform="translate(187.042032, 89.817736)"><g><path d="M 3.078125 -8.96875 L 3.078125 -5.109375 L 8.265625 -5.109375 L 8.265625 -8.96875 L 9.640625 -8.96875 L 9.640625 0 L 8.265625 0 L 8.265625 -3.78125 L 3.078125 -3.78125 L 3.078125 0 L 1.6875 0 L 1.6875 -8.96875 Z M 3.078125 -8.96875 "/></g></g></g><g fill="#000000" fill-opacity="1"><g transform="translate(198.362375, 89.817736)"><g/></g></g><g fill="#000000" fill-opacity="1"><g transform="translate(202.997344, 89.817736)"><g/></g></g><g fill="#000000" fill-opacity="1"><g transform="translate(207.63411, 89.817736)"><g><path d="M 8.78125 -8.96875 L 10.15625 -8.96875 L 10.15625 0 L 8.84375 0 L 2.84375 -6.9375 C 2.894531 -6.40625 2.945312 -5.867188 3 -5.328125 C 3.050781 -4.796875 3.078125 -4.265625 3.078125 -3.734375 L 3.078125 0 L 1.6875 0 L 1.6875 -8.96875 L 2.984375 -8.96875 L 8.984375 -1.875 C 8.921875 -2.289062 8.875 -2.738281 8.84375 -3.21875 C 8.8125 -3.695312 8.789062 -4.175781 8.78125 -4.65625 C 8.78125 -5.132812 8.78125 -5.585938 8.78125 -6.015625 Z M 8.78125 -8.96875 "/></g></g></g><g fill="#000000" fill-opacity="1"><g transform="translate(219.466606, 89.817736)"><g/></g></g><g fill="#000000" fill-opacity="1"><g transform="translate(224.101576, 89.817736)"><g/></g></g><g fill="#ed8119" fill-opacity="1"><g transform="translate(228.738339, 89.817736)"><g><path d="M 10.640625 -4.484375 C 10.640625 -3.835938 10.519531 -3.234375 10.28125 -2.671875 C 10.050781 -2.109375 9.71875 -1.617188 9.28125 -1.203125 C 8.851562 -0.785156 8.34375 -0.457031 7.75 -0.21875 C 7.164062 0.0078125 6.523438 0.125 5.828125 0.125 C 5.128906 0.125 4.484375 0.0078125 3.890625 -0.21875 C 3.304688 -0.457031 2.800781 -0.785156 2.375 -1.203125 C 1.945312 -1.617188 1.613281 -2.109375 1.375 -2.671875 C 1.144531 -3.234375 1.03125 -3.835938 1.03125 -4.484375 C 1.03125 -5.128906 1.144531 -5.734375 1.375 -6.296875 C 1.613281 -6.859375 1.945312 -7.347656 2.375 -7.765625 C 2.800781 -8.179688 3.304688 -8.503906 3.890625 -8.734375 C 4.484375 -8.972656 5.128906 -9.09375 5.828125 -9.09375 C 6.523438 -9.09375 7.164062 -8.972656 7.75 -8.734375 C 8.34375 -8.503906 8.851562 -8.179688 9.28125 -7.765625 C 9.71875 -7.347656 10.050781 -6.859375 10.28125 -6.296875 C 10.519531 -5.734375 10.640625 -5.128906 10.640625 -4.484375 Z M 9.21875 -4.484375 C 9.21875 -5.109375 9.070312 -5.664062 8.78125 -6.15625 C 8.5 -6.644531 8.097656 -7.03125 7.578125 -7.3125 C 7.066406 -7.601562 6.484375 -7.75 5.828125 -7.75 C 5.148438 -7.75 4.554688 -7.601562 4.046875 -7.3125 C 3.546875 -7.03125 3.148438 -6.644531 2.859375 -6.15625 C 2.578125 -5.664062 2.4375 -5.109375 2.4375 -4.484375 C 2.4375 -3.859375 2.578125 -3.300781 2.859375 -2.8125 C 3.148438 -2.320312 3.546875 -1.929688 4.046875 -1.640625 C 4.554688 -1.359375 5.148438 -1.21875 5.828125 -1.21875 C 6.484375 -1.21875 7.066406 -1.359375 7.578125 -1.640625 C 8.097656 -1.929688 8.5 -2.320312 8.78125 -2.8125 C 9.070312 -3.3125 9.21875 -3.867188 9.21875 -4.484375 Z M 9.21875 -4.484375 "/></g></g></g><g fill="#000000" fill-opacity="1"><g transform="translate(240.394231, 89.817736)"><g/></g></g><g fill="#000000" fill-opacity="1"><g transform="translate(245.0292, 89.817736)"><g/></g></g><g fill="#000000" fill-opacity="1"><g transform="translate(249.665963, 89.817736)"><g><path d="M 8 -1.328125 L 8 0 L 1.6875 0 L 1.6875 -8.96875 L 3.078125 -8.96875 L 3.078125 -1.328125 Z M 8 -1.328125 "/></g></g></g><g fill="#000000" fill-opacity="1"><g transform="translate(258.875881, 89.817736)"><g/></g></g><g fill="#000000" fill-opacity="1"><g transform="translate(263.51085, 89.817736)"><g/></g></g><g fill="#ed8119" fill-opacity="1"><g transform="translate(268.147613, 89.817736)"><g><path d="M 10.640625 -4.484375 C 10.640625 -3.835938 10.519531 -3.234375 10.28125 -2.671875 C 10.050781 -2.109375 9.71875 -1.617188 9.28125 -1.203125 C 8.851562 -0.785156 8.34375 -0.457031 7.75 -0.21875 C 7.164062 0.0078125 6.523438 0.125 5.828125 0.125 C 5.128906 0.125 4.484375 0.0078125 3.890625 -0.21875 C 3.304688 -0.457031 2.800781 -0.785156 2.375 -1.203125 C 1.945312 -1.617188 1.613281 -2.109375 1.375 -2.671875 C 1.144531 -3.234375 1.03125 -3.835938 1.03125 -4.484375 C 1.03125 -5.128906 1.144531 -5.734375 1.375 -6.296875 C 1.613281 -6.859375 1.945312 -7.347656 2.375 -7.765625 C 2.800781 -8.179688 3.304688 -8.503906 3.890625 -8.734375 C 4.484375 -8.972656 5.128906 -9.09375 5.828125 -9.09375 C 6.523438 -9.09375 7.164062 -8.972656 7.75 -8.734375 C 8.34375 -8.503906 8.851562 -8.179688 9.28125 -7.765625 C 9.71875 -7.347656 10.050781 -6.859375 10.28125 -6.296875 C 10.519531 -5.734375 10.640625 -5.128906 10.640625 -4.484375 Z M 9.21875 -4.484375 C 9.21875 -5.109375 9.070312 -5.664062 8.78125 -6.15625 C 8.5 -6.644531 8.097656 -7.03125 7.578125 -7.3125 C 7.066406 -7.601562 6.484375 -7.75 5.828125 -7.75 C 5.148438 -7.75 4.554688 -7.601562 4.046875 -7.3125 C 3.546875 -7.03125 3.148438 -6.644531 2.859375 -6.15625 C 2.578125 -5.664062 2.4375 -5.109375 2.4375 -4.484375 C 2.4375 -3.859375 2.578125 -3.300781 2.859375 -2.8125 C 3.148438 -2.320312 3.546875 -1.929688 4.046875 -1.640625 C 4.554688 -1.359375 5.148438 -1.21875 5.828125 -1.21875 C 6.484375 -1.21875 7.066406 -1.359375 7.578125 -1.640625 C 8.097656 -1.929688 8.5 -2.320312 8.78125 -2.8125 C 9.070312 -3.3125 9.21875 -3.867188 9.21875 -4.484375 Z M 9.21875 -4.484375 "/></g></g></g><g fill="#000000" fill-opacity="1"><g transform="translate(279.803505, 89.817736)"><g/></g></g><g fill="#000000" fill-opacity="1"><g transform="translate(284.438474, 89.817736)"><g/></g></g><g fill="#000000" fill-opacity="1"><g transform="translate(289.075237, 89.817736)"><g><path d="M 6.015625 -9.046875 C 6.585938 -9.046875 7.113281 -8.972656 7.59375 -8.828125 C 8.070312 -8.679688 8.492188 -8.492188 8.859375 -8.265625 C 9.234375 -8.035156 9.523438 -7.785156 9.734375 -7.515625 L 8.84375 -6.5625 C 8.457031 -6.894531 8.023438 -7.164062 7.546875 -7.375 C 7.078125 -7.59375 6.566406 -7.703125 6.015625 -7.703125 C 5.347656 -7.703125 4.742188 -7.5625 4.203125 -7.28125 C 3.660156 -7 3.234375 -6.613281 2.921875 -6.125 C 2.609375 -5.644531 2.453125 -5.097656 2.453125 -4.484375 C 2.453125 -3.816406 2.617188 -3.238281 2.953125 -2.75 C 3.285156 -2.257812 3.722656 -1.878906 4.265625 -1.609375 C 4.804688 -1.347656 5.390625 -1.21875 6.015625 -1.21875 C 6.546875 -1.21875 7.035156 -1.300781 7.484375 -1.46875 C 7.929688 -1.644531 8.289062 -1.878906 8.5625 -2.171875 C 8.84375 -2.460938 8.984375 -2.800781 8.984375 -3.1875 L 6 -3.1875 L 6 -4.546875 L 10.421875 -4.546875 C 10.441406 -4.429688 10.457031 -4.3125 10.46875 -4.1875 C 10.488281 -4.070312 10.5 -3.960938 10.5 -3.859375 C 10.5 -3.390625 10.425781 -2.9375 10.28125 -2.5 C 10.132812 -2.0625 9.921875 -1.691406 9.640625 -1.390625 C 9.265625 -0.910156 8.757812 -0.535156 8.125 -0.265625 C 7.488281 -0.00390625 6.757812 0.125 5.9375 0.125 C 5.269531 0.125 4.640625 0.015625 4.046875 -0.203125 C 3.453125 -0.421875 2.925781 -0.734375 2.46875 -1.140625 C 2.019531 -1.546875 1.664062 -2.03125 1.40625 -2.59375 C 1.15625 -3.164062 1.03125 -3.796875 1.03125 -4.484375 C 1.03125 -5.128906 1.15625 -5.726562 1.40625 -6.28125 C 1.65625 -6.832031 2.007812 -7.316406 2.46875 -7.734375 C 2.925781 -8.148438 3.457031 -8.472656 4.0625 -8.703125 C 4.664062 -8.929688 5.316406 -9.046875 6.015625 -9.046875 Z M 6.015625 -9.046875 "/></g></g></g><g fill="#000000" fill-opacity="1"><g transform="translate(300.501543, 89.817736)"><g/></g></g><g fill="#000000" fill-opacity="1"><g transform="translate(305.136513, 89.817736)"><g/></g></g><g fill="#000000" fill-opacity="1"><g transform="translate(309.773276, 89.817736)"><g><path d="M 6.515625 0 L 1.53125 0 L 1.53125 -1.3125 L 3.328125 -1.3125 L 3.328125 -7.65625 L 1.53125 -7.65625 L 1.53125 -8.96875 L 6.515625 -8.96875 L 6.515625 -7.65625 L 4.71875 -7.65625 L 4.71875 -1.3125 L 6.515625 -1.3125 Z M 6.515625 0 "/></g></g></g><g fill="#000000" fill-opacity="1"><g transform="translate(317.81761, 89.817736)"><g/></g></g><g fill="#000000" fill-opacity="1"><g transform="translate(322.452579, 89.817736)"><g/></g></g><g fill="#000000" fill-opacity="1"><g transform="translate(327.089342, 89.817736)"><g><path d="M 1.6875 -8.96875 L 8.0625 -8.96875 L 8.0625 -7.640625 L 3.078125 -7.640625 L 3.078125 -5.265625 L 7.359375 -5.265625 L 7.359375 -3.9375 L 3.078125 -3.9375 L 3.078125 -1.328125 L 8.0625 -1.328125 L 8.0625 0 L 1.6875 0 Z M 1.6875 -8.96875 "/></g></g></g><g fill="#000000" fill-opacity="1"><g transform="translate(336.546506, 89.817736)"><g/></g></g><g fill="#000000" fill-opacity="1"><g transform="translate(341.181475, 89.817736)"><g/></g></g><g fill="#000000" fill-opacity="1"><g transform="translate(345.818238, 89.817736)"><g><path d="M 1.953125 -2.734375 C 2.367188 -2.210938 2.800781 -1.8125 3.25 -1.53125 C 3.707031 -1.25 4.273438 -1.109375 4.953125 -1.109375 C 5.304688 -1.109375 5.644531 -1.15625 5.96875 -1.25 C 6.289062 -1.351562 6.554688 -1.5 6.765625 -1.6875 C 6.972656 -1.882812 7.078125 -2.128906 7.078125 -2.421875 C 7.078125 -2.847656 6.863281 -3.160156 6.4375 -3.359375 C 6.007812 -3.566406 5.410156 -3.726562 4.640625 -3.84375 C 3.671875 -4.007812 2.898438 -4.296875 2.328125 -4.703125 C 1.765625 -5.117188 1.484375 -5.726562 1.484375 -6.53125 C 1.484375 -7.0625 1.640625 -7.519531 1.953125 -7.90625 C 2.273438 -8.289062 2.695312 -8.582031 3.21875 -8.78125 C 3.738281 -8.988281 4.3125 -9.09375 4.9375 -9.09375 C 5.71875 -9.09375 6.394531 -8.957031 6.96875 -8.6875 C 7.550781 -8.414062 8.003906 -8.023438 8.328125 -7.515625 L 7.375 -6.53125 C 7.101562 -6.925781 6.757812 -7.242188 6.34375 -7.484375 C 5.9375 -7.734375 5.453125 -7.859375 4.890625 -7.859375 C 4.335938 -7.859375 3.867188 -7.75 3.484375 -7.53125 C 3.109375 -7.3125 2.921875 -7.003906 2.921875 -6.609375 C 2.921875 -6.160156 3.117188 -5.835938 3.515625 -5.640625 C 3.921875 -5.441406 4.457031 -5.285156 5.125 -5.171875 C 5.5625 -5.109375 5.976562 -5.015625 6.375 -4.890625 C 6.78125 -4.773438 7.140625 -4.617188 7.453125 -4.421875 C 7.773438 -4.234375 8.03125 -4 8.21875 -3.71875 C 8.40625 -3.445312 8.5 -3.109375 8.5 -2.703125 C 8.5 -2.128906 8.351562 -1.628906 8.0625 -1.203125 C 7.769531 -0.785156 7.347656 -0.457031 6.796875 -0.21875 C 6.253906 0.0078125 5.613281 0.125 4.875 0.125 C 4.082031 0.125 3.363281 -0.0078125 2.71875 -0.28125 C 2.082031 -0.550781 1.519531 -0.992188 1.03125 -1.609375 Z M 1.953125 -2.734375 "/></g></g></g><g fill="#000000" fill-opacity="1"><g transform="translate(355.399031, 89.817736)"><g/></g></g><g fill="#000000" fill-opacity="1"><g transform="translate(360.034, 89.817736)"><g/></g></g><g fill="#000000" fill-opacity="1"><g transform="translate(364.66897, 89.817736)"><g/></g></g><g fill="#000000" fill-opacity="1"><g transform="translate(369.303939, 89.817736)"><g/></g></g></svg>