<?xml version="1.0" standalone="no"?>
<!DOCTYPE svg PUBLIC "-//W3C//DTD SVG 20010904//EN"
 "http://www.w3.org/TR/2001/REC-SVG-20010904/DTD/svg10.dtd">
<svg version="1.0" xmlns="http://www.w3.org/2000/svg"
 width="896.000000pt" height="1152.000000pt" viewBox="0 0 896.000000 1152.000000"
 preserveAspectRatio="xMidYMid meet">

<g transform="translate(0.000000,1152.000000) scale(0.100000,-0.100000)"
fill="#000000" stroke="none">
<path d="M3065 8751 c-3 -6 7 -9 22 -8 23 2 28 -2 27 -20 0 -13 3 -23 8 -23 4
0 8 -7 8 -15 0 -20 16 -19 24 0 3 9 -1 18 -9 21 -8 4 -12 10 -9 15 3 6 0 16
-6 24 -14 17 -56 20 -65 6z"/>
<path d="M3040 8726 c0 -2 7 -7 16 -10 8 -3 12 -2 9 4 -6 10 -25 14 -25 6z"/>
<path d="M3242 8683 c2 -10 11 -19 20 -21 12 -2 15 2 11 17 -7 25 -36 28 -31
4z"/>
<path d="M4496 8529 c-74 -18 -166 -90 -201 -159 -15 -29 -15 -33 -3 -22 13
10 17 10 22 0 3 -7 3 -3 0 10 -5 20 3 27 29 23 4 -1 7 6 5 15 -3 18 87 89 101
79 5 -2 14 2 21 10 8 10 21 13 33 9 12 -4 17 -2 13 4 -6 10 15 22 37 22 7 0 6
-5 -3 -11 -12 -8 -11 -9 5 -5 32 8 89 11 100 4 16 -9 175 -6 181 4 3 4 -1 10
-8 12 -30 10 -296 14 -332 5z"/>
<path d="M5665 8466 c-20 -15 -16 -49 6 -54 12 -2 39 34 39 52 0 12 -31 13
-45 2z"/>
<path d="M6135 8469 c22 -4 90 -7 150 -7 106 1 107 1 40 8 -38 4 -106 8 -150
8 -68 0 -74 -2 -40 -9z"/>
<path d="M5322 8461 c-8 -5 -12 -17 -10 -27 3 -17 15 -19 105 -22 82 -2 104 0
117 13 9 9 16 20 16 24 0 19 -201 30 -228 12z"/>
<path d="M6408 8463 c7 -3 16 -2 19 1 4 3 -2 6 -13 5 -11 0 -14 -3 -6 -6z"/>
<path d="M6490 8440 c8 -6 24 -15 35 -21 16 -8 15 -6 -4 10 -13 12 -28 21 -35
21 -6 0 -4 -5 4 -10z"/>
<path d="M4810 8402 c0 -8 10 -28 22 -45 12 -18 22 -33 23 -35 8 -11 154 -21
385 -26 151 -3 362 -10 467 -17 217 -12 269 -4 325 53 32 32 35 40 13 32 -8
-4 -15 -9 -15 -13 0 -5 -23 -20 -51 -36 l-52 -28 -146 7 c-80 4 -308 13 -506
21 -198 8 -374 20 -392 26 -17 5 -41 25 -52 42 -11 18 -21 26 -21 19z"/>
<path d="M4261 8268 c-1 -16 4 -28 9 -28 12 0 12 8 0 35 -8 18 -9 17 -9 -7z"/>
<path d="M4285 8280 c3 -5 8 -10 11 -10 2 0 4 5 4 10 0 6 -5 10 -11 10 -5 0
-7 -4 -4 -10z"/>
<path d="M4311 8274 c0 -11 3 -14 6 -6 3 7 2 16 -1 19 -3 4 -6 -2 -5 -13z"/>
<path d="M4208 8128 c-20 -62 -62 -185 -93 -273 -31 -88 -62 -180 -69 -205 -7
-25 -32 -96 -55 -158 -23 -63 -66 -186 -96 -275 -29 -89 -92 -273 -138 -409
-47 -137 -82 -248 -77 -248 18 0 72 -55 92 -93 27 -53 25 -169 -3 -151 -5 3
-35 -22 -67 -55 -87 -90 -194 -132 -254 -100 -14 8 -18 8 -14 0 4 -6 0 -33 -8
-61 -12 -39 -13 -57 -4 -75 6 -14 15 -25 20 -25 21 0 8 -41 -165 -540 -41
-118 -99 -285 -130 -370 -30 -85 -85 -240 -122 -345 -37 -104 -73 -206 -80
-225 -7 -19 -25 -71 -40 -115 -15 -44 -50 -143 -77 -220 -27 -77 -53 -151 -58
-165 -4 -14 -22 -63 -40 -110 -102 -274 -141 -405 -143 -480 -1 -60 3 -83 20
-115 41 -78 101 -116 198 -129 28 -4 70 -11 95 -16 25 -5 124 -23 220 -40 223
-39 238 -41 525 -95 132 -24 296 -54 365 -65 69 -12 220 -39 335 -60 116 -22
234 -42 263 -46 38 -5 50 -10 40 -16 -10 -8 -9 -9 3 -5 10 3 60 -1 112 -9 86
-14 102 -14 159 0 175 44 258 137 309 348 10 42 36 138 58 215 21 76 58 206
80 288 23 83 57 206 76 275 19 69 48 172 64 230 60 217 122 440 166 605 47
171 99 363 176 640 23 83 47 173 54 200 7 28 21 79 33 115 11 36 30 101 41
145 12 44 46 172 77 285 31 113 76 282 100 375 67 260 95 364 116 438 21 70
20 138 -2 190 -8 18 -9 16 -4 -10 3 -21 2 -33 -6 -33 -6 0 -10 -6 -9 -12 3
-25 -3 -63 -7 -48 -34 107 -39 120 -55 120 -9 0 -19 -6 -22 -14 -3 -8 -24 -15
-51 -18 -40 -3 -46 -1 -47 17 -1 17 -2 17 -6 3 -5 -21 -14 -23 -31 -6 -9 9 -9
4 -2 -22 5 -19 8 -35 7 -37 -2 -1 -59 2 -128 7 -68 5 -132 10 -141 10 -12 0
-18 8 -18 24 0 31 25 40 84 31 24 -4 63 -4 86 0 44 7 46 13 24 69 -5 13 1 16
25 16 21 0 31 5 31 15 0 11 -11 15 -40 15 -36 0 -40 3 -40 25 0 23 -4 25 -40
25 -22 0 -40 5 -40 10 0 6 -7 6 -19 -2 -15 -9 -22 -8 -36 5 -9 9 -30 18 -46
18 -28 1 -46 4 -51 8 -4 3 -54 6 -398 26 -728 41 -705 39 -705 70 0 18 7 20
80 20 44 0 155 -4 246 -8 136 -6 169 -4 178 7 6 7 9 20 7 27 -17 54 -16 68 6
75 22 7 22 7 3 14 -13 5 -25 1 -33 -9 -12 -14 -13 -14 -9 4 3 15 -1 21 -14 21
-14 0 -17 -8 -14 -46 3 -34 1 -39 -5 -20 -4 14 -8 19 -9 11 -1 -12 -30 -13
-178 -7 -98 4 -182 11 -186 15 -5 5 -2 22 7 39 19 36 20 42 5 42 -5 0 -7 -4
-4 -10 3 -5 2 -10 -3 -10 -6 0 -15 -14 -21 -31 l-11 -32 -122 9 c-68 4 -139 7
-160 6 -48 -2 -68 20 -42 49 12 14 25 18 39 14 23 -7 17 -7 117 -1 43 2 80 0
84 -5 3 -5 14 -4 27 2 16 9 22 9 25 0 2 -6 8 -11 13 -11 6 0 7 5 4 10 -3 6 1
10 9 10 10 0 13 -6 9 -17 -4 -11 -3 -14 5 -9 7 4 12 14 12 22 0 9 11 14 35 14
24 0 35 5 35 15 0 11 -11 15 -40 15 -23 0 -40 5 -40 11 0 8 24 9 80 4 l80 -7
0 56 c0 34 -4 56 -11 56 -6 0 -20 11 -31 25 -16 21 -28 25 -72 25 -28 0 -57 5
-64 12 -7 7 -12 36 -12 64 0 44 -4 56 -25 72 -14 11 -25 25 -25 31 0 6 -10 11
-22 11 -12 0 -30 7 -40 17 -17 15 -18 15 -18 0 0 -10 -7 -17 -15 -17 -11 0
-15 11 -15 40 0 36 -2 40 -25 40 -20 0 -25 5 -25 24 0 21 -5 24 -47 28 -53 5
-65 1 -43 -12 13 -8 12 -12 -5 -24 -26 -20 -65 -17 -65 5 0 9 10 19 22 22 18
5 19 8 8 21 -7 9 -15 16 -19 16 -3 0 -23 -51 -43 -112z m482 -358 c0 -5 -4
-10 -10 -10 -5 0 -10 5 -10 10 0 6 5 10 10 10 6 0 10 -4 10 -10z m347 -226
c-3 -3 -12 -4 -19 -1 -8 3 -5 6 6 6 11 1 17 -2 13 -5z m-276 -149 c41 -7 52
-28 27 -53 -15 -15 -89 -15 -139 0 -36 10 -41 9 -64 -12 -14 -13 -25 -20 -25
-16 0 5 -7 3 -15 -4 -9 -7 -15 -8 -15 -2 0 10 -94 30 -172 35 -57 4 -62 8 -54
42 5 20 13 25 37 25 16 0 32 -6 35 -14 4 -10 13 -12 31 -7 14 4 41 5 60 3 33
-4 35 -6 29 -34 -4 -20 -2 -28 6 -26 6 2 12 14 13 26 2 32 10 36 68 33 35 -1
56 -7 65 -18 11 -15 12 -15 12 -1 0 9 12 26 28 38 22 18 28 19 30 7 2 -9 19
-18 43 -22z m932 -19 c5 -11 -4 -14 -39 -11 -25 1 -48 6 -52 10 -4 4 7 5 25 2
18 -4 35 -2 38 3 9 14 22 12 28 -4z m-13 -81 c0 -8 -7 -15 -16 -15 -14 0 -14
3 -4 15 7 8 14 15 16 15 2 0 4 -7 4 -15z m-1000 -24 c52 -5 133 -12 180 -15
47 -4 110 -8 140 -11 30 -3 152 -10 270 -16 437 -22 455 -24 455 -54 0 -18 -7
-20 -65 -20 -92 0 -304 12 -605 34 -143 11 -341 25 -439 31 -99 6 -183 13
-188 16 -10 6 -11 38 0 48 7 8 77 4 252 -13z m1010 -11 c0 -5 -7 -7 -15 -4 -8
4 -15 8 -15 10 0 2 7 4 15 4 8 0 15 -4 15 -10z m-3 -26 c-9 -9 -108 -11 -113
-2 -3 5 23 8 57 8 34 0 60 -3 56 -6z m-767 -85 c250 -17 485 -33 523 -36 63
-5 67 -7 67 -29 0 -28 -6 -29 -180 -14 -200 17 -228 19 -580 41 -190 12 -348
25 -352 28 -4 4 -1 17 8 29 10 15 22 20 37 17 12 -3 227 -19 477 -36z m1140
-11 c0 -19 -2 -20 -10 -8 -13 19 -13 30 0 30 6 0 10 -10 10 -22z m-1542 -108
c19 -5 40 -6 48 -3 19 7 44 -15 44 -39 0 -18 -5 -19 -52 -14 -29 3 -107 11
-173 16 -66 6 -128 13 -137 16 -18 5 -24 25 -11 37 8 9 238 -2 281 -13z m467
-34 c110 -8 212 -15 228 -16 22 0 27 -4 27 -25 0 -23 -4 -25 -42 -25 -24 0
-155 9 -293 20 -137 11 -256 20 -262 20 -14 0 -18 32 -5 44 7 8 17 8 347 -18z
m-545 -106 c140 -11 165 -19 139 -45 -13 -13 -34 -13 -184 0 -94 8 -176 15
-182 15 -14 0 -18 32 -5 44 4 4 27 5 52 2 25 -3 106 -10 180 -16z m-289 -10
c21 -12 25 -40 7 -58 -19 -19 -56 -14 -68 8 -8 15 -6 24 10 40 23 23 25 23 51
10z m-171 -291 c0 -28 -2 -30 -32 -27 -17 2 -33 8 -35 14 -5 16 25 44 48 44
15 0 19 -7 19 -31z m192 5 c106 -8 122 -13 112 -37 -8 -22 -22 -23 -133 -14
-159 14 -159 13 -153 43 4 24 8 26 41 20 20 -3 80 -9 133 -12z m468 -50 c91
-8 233 -21 315 -29 83 -7 185 -17 227 -21 87 -8 104 -15 94 -39 -7 -20 -16
-20 -323 10 -206 19 -468 44 -555 52 -77 7 -93 14 -84 38 7 20 -12 20 326 -11z
m-411 -90 c39 -4 74 -10 76 -14 2 -4 -1 -15 -8 -24 -12 -16 -24 -17 -105 -11
-94 8 -100 12 -86 50 5 11 14 15 29 11 12 -3 54 -9 94 -12z m321 -28 c69 -8
204 -22 300 -31 186 -17 253 -23 258 -24 7 -2 1 -41 -8 -46 -5 -3 -123 6 -262
20 -139 15 -298 31 -352 35 -103 10 -123 18 -113 44 8 20 20 20 177 2z m-210
-16 c0 -5 -5 -10 -11 -10 -5 0 -7 5 -4 10 3 6 8 10 11 10 2 0 4 -4 4 -10z
m-57 -76 c101 -7 120 -15 95 -41 -13 -12 -27 -13 -92 -4 -43 6 -103 11 -134
11 -81 0 -101 7 -94 32 5 19 10 20 66 14 34 -3 105 -9 159 -12z m201 -45 c-8
-13 -40 -11 -52 4 -9 10 -4 12 23 9 19 -2 32 -8 29 -13z m276 -8 c102 -11 286
-29 410 -41 124 -11 261 -25 306 -30 44 -6 96 -10 116 -10 20 0 43 -3 52 -6
19 -7 21 -40 4 -46 -7 -3 -94 3 -193 13 -99 10 -254 25 -345 34 -91 8 -217 22
-280 30 -63 7 -158 17 -210 20 -52 4 -98 9 -101 11 -4 2 -4 15 -1 29 4 22 9
25 31 21 14 -3 109 -14 211 -25z m-427 -68 c16 -9 6 -44 -16 -52 -32 -12 -77
-2 -77 17 0 29 31 52 59 45 14 -3 29 -8 34 -10z m284 -33 c200 -22 503 -53
698 -71 72 -7 133 -15 138 -19 4 -3 1 -14 -5 -23 -14 -19 -65 -15 -513 33 -99
10 -256 26 -350 35 -93 9 -174 20 -178 24 -11 11 3 41 19 41 7 0 94 -9 191
-20z m-444 -76 c22 -4 37 -12 37 -20 0 -8 7 -14 15 -14 8 0 15 7 15 15 0 10
10 15 30 15 35 0 47 -19 31 -48 -9 -17 -16 -19 -43 -12 -18 5 -63 11 -100 15
-57 6 -68 10 -68 25 0 28 21 34 83 24z m359 -34 c90 -11 173 -23 186 -25 22
-5 30 -29 13 -39 -9 -6 -316 19 -378 30 -48 9 -44 50 4 53 6 1 85 -8 175 -19z
m-247 -115 c169 -18 213 -31 188 -56 -8 -8 -66 -5 -218 10 -114 12 -211 23
-215 26 -5 3 -6 14 -3 26 5 18 12 20 42 16 20 -3 113 -13 206 -22z m-200 -136
c50 -5 109 -12 132 -15 24 -3 44 -11 47 -20 12 -30 -14 -30 -306 8 -83 10
-102 20 -80 42 4 4 32 5 62 2 30 -4 96 -11 145 -17z m279 -38 c11 -17 -6 -41
-29 -41 -28 0 -38 12 -29 34 7 17 49 22 58 7z m93 -18 c5 -15 -31 -35 -51 -27
-19 7 -21 30 -3 38 19 8 50 2 54 -11z m201 -13 c53 -6 171 -19 262 -30 91 -10
190 -22 220 -25 30 -3 62 -10 70 -15 13 -8 13 -11 0 -24 -17 -17 17 -20 -565
49 -121 15 -155 25 -155 46 0 12 49 11 168 -1z m-578 -45 c74 -8 173 -19 220
-25 96 -12 245 -28 338 -37 57 -5 63 -8 60 -27 -3 -19 -9 -21 -63 -19 -33 1
-94 7 -135 12 -41 6 -189 25 -329 41 -140 17 -258 33 -262 36 -5 3 -9 12 -9
20 0 18 12 18 180 -1z m-381 -67 c12 -32 -21 -68 -47 -52 -26 17 -27 49 0 62
33 16 38 15 47 -10z m138 -12 c2 -2 -1 -15 -7 -30 -9 -25 -14 -27 -43 -21 -38
9 -49 23 -37 46 7 12 19 15 47 12 20 -2 39 -5 40 -7z m17 -176 c18 -18 -8 -30
-64 -30 -62 0 -80 11 -59 36 10 12 24 14 63 9 28 -4 55 -11 60 -15z m256 -26
c69 -9 170 -21 225 -28 92 -10 100 -13 103 -33 4 -29 8 -29 -231 3 -105 14
-216 28 -245 31 -56 6 -67 14 -58 40 5 12 15 14 44 9 20 -3 93 -13 162 -22z
m-65 -74 c174 -20 334 -41 425 -55 52 -8 134 -18 183 -21 72 -6 91 -11 112
-30 25 -23 33 -44 16 -44 -5 0 -11 5 -13 11 -4 11 -14 -19 -38 -108 -15 -61
-31 -66 -153 -53 -102 11 -405 51 -527 70 -36 6 -105 14 -155 20 -61 7 -98 16
-116 29 -20 15 -137 41 -185 41 -2 0 -4 9 -4 20 0 17 7 20 45 20 25 0 63 -8
84 -18 26 -13 40 -15 47 -8 13 16 44 64 44 71 0 3 -25 5 -55 5 -42 0 -57 4
-62 16 -9 25 17 35 70 29 34 -4 52 -2 62 9 15 15 57 14 220 -4z m843 -240 c93
-10 281 -35 350 -46 33 -5 44 -30 18 -40 -12 -5 -383 38 -448 52 -16 3 -28 10
-28 15 0 6 -4 7 -10 4 -5 -3 -10 4 -10 15 0 16 4 20 16 16 9 -3 59 -11 112
-16z m-1058 -80 l35 -19 -51 -1 c-55 0 -65 5 -57 26 7 19 31 17 73 -6z m145
-20 c-3 -5 -11 -10 -16 -10 -6 0 -7 5 -4 10 3 6 11 10 16 10 6 0 7 -4 4 -10z
m-567 -181 c3 -27 -18 -41 -45 -32 -17 6 -17 35 -1 51 19 19 43 9 46 -19z
m177 -9 c33 -7 75 -15 94 -18 37 -8 51 -26 27 -35 -14 -6 -256 30 -265 38 -2
3 2 12 10 21 9 11 22 14 44 10 16 -3 57 -10 90 -16z m440 -61 c152 -23 155
-24 155 -44 0 -10 -10 -15 -31 -15 -32 0 -392 49 -397 54 -1 2 1 11 4 21 8 20
43 18 269 -16z m-399 -80 c42 -11 57 -30 34 -44 -17 -10 -120 6 -120 19 0 14
20 36 33 36 4 0 28 -5 53 -11z m229 -29 c179 -30 190 -33 190 -50 0 -11 -11
-15 -45 -15 -57 1 -223 23 -273 36 -33 9 -36 12 -27 29 13 24 8 24 155 0z
m-140 -111 c28 -5 69 -12 93 -15 32 -5 42 -11 42 -25 0 -24 -22 -24 -152 -5
-117 18 -178 34 -178 46 0 13 129 12 195 -1z m266 -40 c30 -5 115 -19 189 -29
74 -11 196 -29 270 -40 74 -12 161 -24 193 -27 60 -6 79 -21 58 -47 -8 -10
-22 -11 -54 -5 -58 11 -334 53 -557 85 -102 15 -189 30 -193 34 -13 11 4 40
23 40 9 0 42 -5 71 -11z m-230 -79 c30 -6 83 -15 119 -20 36 -6 108 -17 160
-25 94 -15 247 -38 490 -75 69 -10 186 -28 260 -40 74 -11 197 -29 273 -39
142 -18 173 -30 147 -55 -11 -10 -28 -12 -65 -6 -153 22 -503 76 -730 111
-143 22 -287 44 -320 49 -33 4 -100 15 -150 23 -49 8 -128 21 -175 28 -95 14
-109 21 -90 44 15 18 13 18 81 5z m-68 -122 c55 -9 67 -14 67 -29 0 -22 0 -22
-93 -9 -92 14 -118 25 -110 46 4 12 14 14 37 10 17 -4 61 -12 99 -18z m182
-38 c27 -7 25 -8 -12 -6 -24 1 -46 5 -50 9 -8 9 23 7 62 -3z m195 -14 c47 -8
218 -35 380 -60 365 -58 340 -52 340 -76 0 -11 -4 -20 -9 -20 -29 0 -551 80
-686 105 -44 8 -92 15 -107 15 -21 0 -28 5 -28 18 0 19 8 32 19 32 3 -1 44 -7
91 -14z m-415 -56 c72 -10 200 -31 285 -46 85 -15 170 -29 188 -32 17 -2 32
-10 32 -17 0 -29 -18 -28 -330 25 -123 20 -223 35 -307 46 -57 6 -67 13 -57
39 5 12 14 15 33 10 14 -3 85 -14 156 -25z m1225 -680 c23 -23 26 -53 8 -67
-15 -10 -79 -10 -96 1 -7 4 -17 4 -22 1 -16 -10 -23 21 -10 45 22 41 88 52
120 20z m-55 -120 c24 -1 27 -2 13 -10 -20 -12 -68 3 -68 22 0 9 3 9 12 0 7
-7 26 -12 43 -12z m-1026 -110 c53 -10 128 -23 166 -30 108 -18 159 -31 172
-42 21 -17 15 -53 -13 -83 -24 -26 -28 -27 -92 -21 -37 3 -89 11 -117 16 -27
6 -124 23 -215 40 -173 31 -190 39 -190 87 0 13 10 33 21 44 20 20 28 21 97
15 42 -4 119 -15 171 -26z"/>
<path d="M3893 5268 c4 -12 1 -28 -5 -35 -6 -8 -8 -17 -4 -21 4 -4 13 1 20 10
11 15 13 15 24 -3 11 -17 14 -18 27 -5 8 8 15 24 15 36 0 19 -4 21 -30 15 -23
-5 -30 -3 -30 9 0 9 -5 16 -11 16 -7 0 -9 -9 -6 -22z"/>
<path d="M4050 5241 c0 -9 82 -27 165 -35 89 -10 190 -25 205 -30 8 -3 22 -2
30 4 26 16 -4 32 -72 37 -35 2 -114 10 -176 18 -131 17 -152 18 -152 6z"/>
<path d="M4100 3190 c6 -11 13 -20 16 -20 2 0 0 9 -6 20 -6 11 -13 20 -16 20
-2 0 0 -9 6 -20z"/>
<path d="M7110 7972 c0 -5 7 -15 15 -22 8 -7 12 -17 8 -23 -3 -6 -1 -7 5 -3 7
4 12 1 12 -8 0 -9 5 -16 10 -16 23 0 9 46 -20 63 -16 10 -30 14 -30 9z"/>
<path d="M7395 7893 c-38 -8 -72 -20 -74 -25 -2 -5 -22 -30 -45 -55 -30 -31
-51 -45 -69 -45 -23 0 -24 -3 -14 -20 16 -25 59 -20 72 10 9 21 95 62 129 62
27 0 85 30 96 49 24 45 16 47 -95 24z"/>
<path d="M2767 7823 c-14 -13 -6 -67 14 -99 23 -38 50 -46 44 -14 -3 14 5 24
24 35 30 15 44 44 31 65 -8 13 -103 24 -113 13z"/>
<path d="M5120 7680 c0 -31 16 -41 26 -15 4 8 10 12 15 9 21 -13 7 5 -16 20
-25 16 -25 16 -25 -14z"/>
<path d="M4890 7670 c13 -9 13 -10 0 -11 -8 0 -1 -7 15 -15 17 -7 44 -13 60
-12 17 1 36 -1 43 -6 7 -4 12 -1 12 8 0 11 -10 16 -27 17 -16 0 -37 5 -48 10
-17 8 -15 8 8 4 15 -3 27 -2 27 3 0 5 -24 9 -52 10 -38 2 -49 0 -38 -8z"/>
<path d="M5040 7670 c0 -5 5 -10 11 -10 5 0 7 5 4 10 -3 6 -8 10 -11 10 -2 0
-4 -4 -4 -10z"/>
<path d="M4700 7660 c0 -5 5 -10 11 -10 5 0 7 5 4 10 -3 6 -8 10 -11 10 -2 0
-4 -4 -4 -10z"/>
<path d="M5177 7623 c-12 -11 -8 -23 8 -23 8 0 15 7 15 15 0 16 -12 20 -23 8z"/>
<path d="M5183 7513 c9 -2 25 -2 35 0 9 3 1 5 -18 5 -19 0 -27 -2 -17 -5z"/>
<path d="M5323 7513 c9 -2 23 -2 30 0 6 3 -1 5 -18 5 -16 0 -22 -2 -12 -5z"/>
<path d="M5104 7501 c5 -8 56 -3 56 5 0 2 -14 4 -31 4 -16 0 -28 -4 -25 -9z"/>
<path d="M5365 7500 c-82 -6 -70 -14 20 -12 43 1 46 0 20 -8 -27 -7 -26 -8 15
-8 25 1 77 -2 115 -5 58 -6 63 -5 31 3 -56 15 -59 23 -6 16 38 -5 40 -4 15 4
-16 5 -47 7 -69 3 -28 -4 -37 -3 -32 5 5 8 0 11 -11 10 -10 -1 -54 -5 -98 -8z"/>
<path d="M5193 7493 c9 -2 23 -2 30 0 6 3 -1 5 -18 5 -16 0 -22 -2 -12 -5z"/>
<path d="M5258 7483 c7 -3 16 -2 19 1 4 3 -2 6 -13 5 -11 0 -14 -3 -6 -6z"/>
<path d="M2360 7440 c0 -16 -48 -72 -52 -61 -4 12 -130 -21 -135 -34 -2 -6 3
-20 11 -30 14 -19 15 -19 9 5 -6 22 -5 23 9 12 14 -11 17 -10 21 10 4 22 4 22
6 -2 1 -20 3 -22 11 -10 9 13 14 10 35 -14 13 -17 22 -33 19 -37 -2 -4 3 -10
12 -13 8 -3 13 -2 10 3 -3 4 6 6 20 3 27 -5 22 -17 -11 -25 -11 -3 17 -5 62
-6 97 -1 127 8 147 47 21 42 17 107 -7 107 -10 0 -24 8 -31 17 -9 13 -22 15
-54 11 -31 -4 -42 -2 -42 7 0 7 -3 10 -7 7 -3 -4 -12 -2 -20 4 -10 9 -13 8
-13 -1z m10 -50 c0 -5 -5 -10 -11 -10 -5 0 -7 5 -4 10 3 6 8 10 11 10 2 0 4
-4 4 -10z"/>
<path d="M5725 7430 c3 -5 8 -10 11 -10 2 0 4 5 4 10 0 6 -5 10 -11 10 -5 0
-7 -4 -4 -10z"/>
<path d="M5900 7380 c0 -5 5 -10 10 -10 6 0 10 5 10 10 0 6 -4 10 -10 10 -5 0
-10 -4 -10 -10z"/>
<path d="M6353 7337 c-2 -30 -2 -31 8 -8 5 14 6 28 1 33 -4 4 -9 -7 -9 -25z"/>
<path d="M6326 7233 c-6 -14 -5 -15 5 -6 7 7 10 15 7 18 -3 3 -9 -2 -12 -12z"/>
<path d="M6080 7215 c0 -11 11 -15 40 -15 29 0 40 4 40 15 0 11 -11 15 -40 15
-29 0 -40 -4 -40 -15z"/>
<path d="M6532 7218 c-5 -7 -22 -60 -36 -118 -14 -58 -44 -174 -66 -259 -43
-166 -48 -212 -26 -230 12 -10 13 -6 9 26 -3 27 14 115 60 298 36 143 69 268
72 278 8 20 2 22 -13 5z"/>
<path d="M6296 7175 c2 -11 4 -29 5 -40 1 -17 2 -16 9 5 4 14 8 32 9 40 1 13
-1 13 -8 1 -8 -12 -10 -12 -14 0 -2 8 -3 5 -1 -6z"/>
<path d="M5988 7183 c7 -3 16 -2 19 1 4 3 -2 6 -13 5 -11 0 -14 -3 -6 -6z"/>
<path d="M2296 7098 c-23 -32 -20 -71 7 -96 29 -27 61 -28 87 -2 26 26 26 81
2 103 -27 25 -78 22 -96 -5z m69 -18 c3 -5 -1 -10 -9 -10 -8 0 -18 5 -21 10
-3 6 1 10 9 10 8 0 18 -4 21 -10z"/>
<path d="M1720 6381 c0 -14 5 -19 15 -15 8 4 15 2 15 -4 0 -5 8 -12 19 -15 16
-4 18 -1 12 22 -9 34 -61 44 -61 12z"/>
<path d="M2536 5738 c-3 -13 -7 -52 -10 -88 -4 -52 -3 -59 5 -35 11 34 23 145
15 145 -3 0 -8 -10 -10 -22z"/>
<path d="M1780 5105 c-10 -13 2 -191 14 -202 4 -4 4 11 1 33 -5 30 -3 43 9 53
9 7 16 21 15 30 0 12 -2 11 -9 -4 -7 -17 -9 -16 -9 11 -1 16 5 39 13 50 14 18
15 18 21 1 6 -14 10 -15 21 -6 18 15 18 33 0 26 -8 -3 -17 0 -20 8 -6 16 -43
16 -56 0z"/>
<path d="M1811 4834 c0 -11 3 -14 6 -6 3 7 2 16 -1 19 -3 4 -6 -2 -5 -13z"/>
<path d="M7270 4629 c-71 -88 -111 -113 -199 -125 -41 -5 -57 -3 -86 15 -40
23 -49 26 -40 11 4 -6 27 -21 53 -35 43 -22 44 -24 20 -25 -16 0 -28 4 -28 9
0 5 -8 11 -17 14 -10 2 -27 8 -38 12 -16 7 -18 6 -7 -6 6 -7 12 -21 12 -31 0
-10 6 -18 13 -18 8 0 7 -3 -3 -10 -8 -5 -11 -12 -7 -16 4 -4 13 -2 19 4 21 21
35 13 36 -19 0 -17 5 -36 10 -42 5 -7 15 -29 21 -49 14 -42 30 -49 38 -18 6
22 19 26 26 8 3 -10 7 -10 20 1 9 7 24 11 32 7 9 -3 31 11 59 37 60 59 94 129
111 232 l7 40 -23 -20 -23 -20 17 27 c33 53 15 66 -23 17z m-49 -108 c-37 -34
-80 -51 -130 -50 -20 0 -31 2 -26 4 6 2 37 11 70 21 33 10 62 21 65 24 5 7 42
29 49 30 2 0 -11 -13 -28 -29z"/>
<path d="M5646 4244 c-4 -20 -5 -38 -2 -41 2 -3 8 11 12 31 3 21 4 39 1 42 -2
3 -8 -11 -11 -32z"/>
<path d="M5628 4165 c-4 -16 -9 -39 -12 -50 -4 -11 1 -5 9 14 9 18 14 41 13
50 -2 9 -7 3 -10 -14z"/>
<path d="M2022 4079 c2 -16 12 -23 33 -25 93 -12 135 -8 135 12 0 8 -4 13 -8
10 -4 -2 -37 2 -72 9 -87 19 -92 19 -88 -6z"/>
<path d="M5582 4023 c-11 -37 -26 -89 -33 -115 -7 -26 -17 -44 -21 -42 -4 3
-8 -7 -8 -21 0 -30 -19 -115 -30 -130 -4 -5 -13 -37 -20 -70 -7 -33 -19 -72
-26 -86 -7 -14 -27 -81 -44 -150 -17 -68 -35 -125 -40 -127 -6 -2 -10 -12 -10
-23 0 -10 -9 -42 -19 -70 -11 -28 -17 -58 -14 -66 4 -9 2 -14 -3 -11 -5 4 -10
-4 -10 -15 -4 -67 -115 -236 -164 -252 -24 -7 -27 -25 -5 -25 22 0 97 72 139
133 35 52 59 120 111 312 15 55 38 134 51 175 13 41 32 109 43 150 11 41 33
125 50 185 55 196 82 307 77 312 -2 3 -13 -26 -24 -64z"/>
<path d="M2521 3271 c-2 -28 43 -83 95 -116 57 -37 64 -40 64 -27 0 7 -59 45
-73 46 -15 2 -58 49 -72 80 -7 17 -14 25 -14 17z"/>
<path d="M2733 3103 c9 -2 23 -2 30 0 6 3 -1 5 -18 5 -16 0 -22 -2 -12 -5z"/>
<path d="M2864 3089 c-3 -5 5 -9 18 -9 13 0 34 -3 48 -7 14 -3 22 -3 18 1 -11
13 -78 24 -84 15z"/>
<path d="M3083 3043 c9 -2 23 -2 30 0 6 3 -1 5 -18 5 -16 0 -22 -2 -12 -5z"/>
<path d="M3135 2974 c19 -14 16 -15 -30 -10 -27 3 -65 8 -84 12 -28 6 -33 4
-30 -11 3 -10 24 -25 54 -36 49 -19 102 -27 58 -9 -13 5 -23 14 -23 20 0 16
18 12 38 -8 32 -32 112 -54 332 -92 63 -10 165 -29 225 -40 61 -12 147 -27
192 -35 45 -8 129 -23 185 -35 160 -33 155 -32 138 -20 -8 5 -10 10 -4 10 5 0
19 -7 30 -15 10 -8 32 -15 49 -15 16 0 74 -9 130 -20 370 -73 481 -92 565 -97
l95 -5 -22 21 c-12 11 -28 21 -35 21 -9 0 -9 3 2 10 13 9 13 10 -1 10 -8 0
-28 13 -44 30 -25 26 -34 29 -89 28 -34 0 -97 6 -141 15 -44 9 -111 21 -150
27 -38 7 -110 20 -160 30 -49 10 -124 24 -165 30 -41 7 -91 16 -110 20 -19 5
-60 11 -90 15 -30 4 -73 11 -95 17 -22 6 -69 11 -105 11 -55 0 -59 1 -25 6 40
7 40 7 -20 13 -78 8 -159 22 -237 42 -122 30 -234 45 -308 41 -45 -3 -74 -8
-72 -15 3 -14 -15 -13 -24 2 -4 6 -2 14 4 16 17 5 -12 32 -35 32 -17 -1 -17
-2 2 -16z m628 -131 c-7 -2 -19 -2 -25 0 -7 3 -2 5 12 5 14 0 19 -2 13 -5z
m130 -20 c-7 -2 -19 -2 -25 0 -7 3 -2 5 12 5 14 0 19 -2 13 -5z"/>
<path d="M3718 2933 c7 -3 16 -2 19 1 4 3 -2 6 -13 5 -11 0 -14 -3 -6 -6z"/>
<path d="M3878 2903 c7 -3 16 -2 19 1 4 3 -2 6 -13 5 -11 0 -14 -3 -6 -6z"/>
<path d="M5063 2790 c-13 -5 -23 -14 -23 -20 0 -6 12 -4 30 5 45 23 39 33 -7
15z"/>
<path d="M4600 2771 c8 -5 38 -11 65 -15 48 -6 49 -6 25 8 -14 9 -43 15 -65
15 -27 0 -35 -2 -25 -8z"/>
<path d="M4930 2750 c-14 -4 -50 -9 -80 -10 -52 -2 -53 -3 -18 -10 42 -8 137
3 165 19 16 9 14 10 -12 10 -16 -1 -41 -5 -55 -9z"/>
<path d="M4768 2743 c7 -3 16 -2 19 1 4 3 -2 6 -13 5 -11 0 -14 -3 -6 -6z"/>
<path d="M2995 2553 c17 -2 35 -10 40 -17 14 -18 221 -63 430 -93 22 -3 45 -9
50 -13 6 -4 43 -13 84 -19 41 -7 77 -13 80 -15 7 -5 188 -36 220 -39 12 -1 21
-4 21 -8 0 -3 19 -9 43 -12 71 -10 168 -26 257 -42 47 -8 141 -24 210 -35 69
-11 144 -24 168 -30 48 -12 152 -11 152 1 0 4 -15 18 -32 30 -18 13 -34 27
-36 31 -2 4 -12 8 -23 8 -10 0 -19 4 -19 8 0 11 -76 32 -126 35 -23 1 -48 7
-55 13 -8 7 -47 15 -88 18 -41 4 -83 14 -95 21 -28 18 -128 36 -461 85 -33 5
-73 11 -90 14 -16 3 -72 8 -122 11 -51 3 -105 10 -119 15 -14 6 -30 8 -35 5
-5 -3 -38 3 -75 15 -72 22 -254 29 -254 10 0 -5 -12 -10 -26 -10 -14 0 -23 4
-19 10 4 6 -15 9 -52 9 -32 -1 -44 -4 -28 -6z"/>
</g>
</svg>
